# xmcd
#
# Track frame offsets:
#	150
#	9677
#	22477
#	32462
#	41367
#	52802
#	65342
#	74547
#	89580
#	102340
#	108850
#	117005
#	127747
#	138872
#	148867
#	159305
#	167992
#
# Disc length: 2342
#
# Revision: 1
# Processed by: cddbd v1.5.1PL0 Copyright (c) Steve Scherf et al.
# Submitted via: ExactAudioCopy v0.90a11
# Normalized: r0:DSETVAR1
#
DISCID=e3092411
DTITLE=Various Artist - The very best of Sun Records Nashville
DYEAR=1900
DGENRE=
TTITLE0=Jerry Lee Lewis - Great Balls Of Fire
TTITLE1=Carl Perkins - Put Your Cat Clothes On
TTITLE2=Roy Orbison - Ooby Dooby
TTITLE3=Jerry Lee Lewis - Jail House Rock
TTITLE4=Billie Riley - Red Hot
TTITLE5=Jonny Cash - Folsom Prison Blues
TTITLE6=Tommy Blake - Flat Food Sam
TTITLE7=Jerry Lee Lewis - Whole lotter Twistin' Goin' On
TTITLE8=Carl Perkins - Boppin' The Blues
TTITLE9=Jerry Lee Lewis - Hound Dog
TTITLE10=Jonny Cash - Sugar Time
TTITLE11=Bill Justis - Raunchy
TTITLE12=Jerry Lee Lewis - What'd I Say
TTITLE13=Jonny Cash - Hey Porter
TTITLE14=Jerry Lee Lewis - Good Golly Miss Molly
TTITLE15=Roy Orbison - Claudette
TTITLE16=Jerry Lee Lewis - Hello Josephine
EXTD=
EXTT0=
EXTT1=
EXTT2=
EXTT3=
EXTT4=
EXTT5=
EXTT6=
EXTT7=
EXTT8=
EXTT9=
EXTT10=
EXTT11=
EXTT12=
EXTT13=
EXTT14=
EXTT15=
EXTT16=
PLAYORDER=
